<svg xmlns="http://www.w3.org/2000/svg" viewBox="0 0 500 500"><g id="freepik--Floor--inject-60"><ellipse id="freepik--floor--inject-60" cx="250" cy="348.83" rx="239.7" ry="138.39" style="fill:#f5f5f5"></ellipse></g><g id="freepik--Shadows--inject-60"><polygon id="freepik--Shadow--inject-60" points="187.67 279.2 229.86 254.84 172.54 221.78 130.36 246.14 187.67 279.2" style="fill:#e6e6e6"></polygon><path id="freepik--shadow--inject-60" d="M70.65,335.84c11.6,6.77,11.6,17.75,0,24.53s-30.41,6.77-42,0-11.6-17.76,0-24.53S59.05,329.07,70.65,335.84Z" style="fill:#e0e0e0"></path><path id="freepik--shadow--inject-60" d="M437.74,367.13l46-26.49a1.18,1.18,0,0,0,0-2.24L370.11,272.58a4.26,4.26,0,0,0-3.87,0l-46,26.49a1.18,1.18,0,0,0,0,2.24l113.59,65.81A4.29,4.29,0,0,0,437.74,367.13Z" style="fill:#e0e0e0"></path><path id="freepik--shadow--inject-60" d="M315.18,293.83,351.4,273a.93.93,0,0,0,0-1.76l-38.84-22.51a3.33,3.33,0,0,0-3,0L273.3,269.56c-.85.48-.85,1.27,0,1.76l38.83,22.51A3.35,3.35,0,0,0,315.18,293.83Z" style="fill:#e0e0e0"></path><path id="freepik--shadow--inject-60" d="M101.94,326.79,58.3,301.65a1.13,1.13,0,0,1,0-2.13l71.28-41.38a4,4,0,0,1,3.67,0l43.64,25.15a1.12,1.12,0,0,1,0,2.12l-71.28,41.38A4,4,0,0,1,101.94,326.79Z" style="fill:#e6e6e6"></path><ellipse id="freepik--shadows--inject-60" cx="219.83" cy="429.18" rx="76.17" ry="43.98" style="fill:#e0e0e0"></ellipse><ellipse id="freepik--shadows--inject-60" cx="291.93" cy="393.78" rx="71.99" ry="41.57" style="fill:#e0e0e0"></ellipse></g><g id="freepik--Boxes--inject-60"><g id="freepik--boxes--inject-60"><g id="freepik--Box--inject-60"><polygon points="187.14 275.27 187.14 247.03 223.83 225.84 223.83 254.09 187.14 275.27" style="fill:#f0f0f0"></polygon><polygon points="187.14 247.03 136.38 217.76 136.38 246.01 187.14 275.27 187.14 247.03" style="fill:#e6e6e6"></polygon><polygon points="187.14 247.03 224.92 225.21 173.07 195.31 135.29 217.13 187.14 247.03" style="fill:#fafafa"></polygon><polygon points="187.14 247.03 187.14 254.09 224.92 232.28 224.92 225.21 187.14 247.03" style="fill:#f0f0f0"></polygon><polygon points="135.29 217.13 187.14 247.03 187.14 254.09 135.29 224.2 135.29 217.13" style="fill:#e6e6e6"></polygon><path d="M187.14,254.09v1.55l36.69-21.18v-1.55Zm-50.76-27.71,50.76,29.26v-1.55l-50.76-29.27Z" style="opacity:0.1"></path><path d="M199.22,251.32l12.53-7.24c.54-.31,1-.05,1,.57v7.41a2.16,2.16,0,0,1-1,1.69L199.22,261c-.54.31-1,.06-1-.56V253A2.16,2.16,0,0,1,199.22,251.32Z" style="fill:#e0e0e0"></path><path d="M199.22,251.32l12.53-7.24c.54-.31,1-.05,1,.57v7.41a2.16,2.16,0,0,1-1,1.69L199.22,261c-.54.31-1,.06-1-.56V253A2.16,2.16,0,0,1,199.22,251.32Z" style="opacity:0.1"></path><path d="M200,252.16,211,245.85c.36-.21.65,0,.65.38v5.56a1.42,1.42,0,0,1-.65,1.12L200,259.22c-.36.21-.65,0-.65-.37v-5.56A1.45,1.45,0,0,1,200,252.16Z" style="fill:#f5f5f5"></path><g style="opacity:0.2"><path d="M200.33,253.63a.16.16,0,0,1-.14-.08.16.16,0,0,1,.06-.22l10.32-6a.15.15,0,0,1,.21.05.15.15,0,0,1-.06.22l-10.31,6Z"></path><path d="M200.33,255a.16.16,0,0,1-.14-.08.15.15,0,0,1,.06-.21l10.32-6a.15.15,0,0,1,.21.06.14.14,0,0,1-.06.21l-10.31,6A.13.13,0,0,1,200.33,255Z"></path><path d="M200.33,256.36a.16.16,0,0,1-.08-.3l10.32-6a.16.16,0,0,1,.21.06.15.15,0,0,1-.06.22l-10.31,6Z"></path><path d="M200.33,257.72a.16.16,0,0,1-.14-.08.15.15,0,0,1,.06-.21l10.32-6a.15.15,0,1,1,.15.27l-10.31,6Z"></path></g></g><g id="freepik--box--inject-60"><polygon points="138.31 215.39 189.25 244.77 224.02 224.69 173.07 195.31 138.31 215.39" style="opacity:0.1"></polygon><g id="freepik--box--inject-60"><polygon points="189.56 242.54 189.56 214.29 226.25 193.11 226.25 221.35 189.56 242.54" style="fill:#f0f0f0"></polygon><polygon points="189.56 214.29 138.81 185.03 138.81 213.27 189.56 242.54 189.56 214.29" style="fill:#e6e6e6"></polygon><polygon points="189.56 214.29 227.34 192.47 175.5 162.57 137.72 184.39 189.56 214.29" style="fill:#fafafa"></polygon><polygon points="189.56 214.29 189.56 221.35 227.34 199.54 227.34 192.47 189.56 214.29" style="fill:#f0f0f0"></polygon><polygon points="137.72 184.39 189.56 214.29 189.56 221.35 137.72 191.46 137.72 184.39" style="fill:#e6e6e6"></polygon><path d="M189.56,221.35v1.56l36.69-21.19v-1.55Zm-50.75-27.71,50.75,29.27v-1.56L138.8,192.09Z" style="opacity:0.1"></path><path d="M201.64,218.58l12.54-7.23c.54-.31,1-.06,1,.56v7.41a2.15,2.15,0,0,1-1,1.7l-12.54,7.23c-.54.32-1,.06-1-.56v-7.41A2.18,2.18,0,0,1,201.64,218.58Z" style="fill:#e0e0e0"></path><path d="M201.64,218.58l12.54-7.23c.54-.31,1-.06,1,.56v7.41a2.15,2.15,0,0,1-1,1.7l-12.54,7.23c-.54.32-1,.06-1-.56v-7.41A2.18,2.18,0,0,1,201.64,218.58Z" style="opacity:0.1"></path><path d="M202.44,219.43l10.93-6.31c.36-.21.65,0,.65.37v5.56a1.45,1.45,0,0,1-.65,1.13l-10.93,6.31c-.36.2-.65,0-.65-.38v-5.56A1.42,1.42,0,0,1,202.44,219.43Z" style="fill:#f5f5f5"></path><g style="opacity:0.2"><path d="M202.75,220.89a.16.16,0,0,1-.14-.08.15.15,0,0,1,.06-.21l10.32-6a.14.14,0,0,1,.21.06.15.15,0,0,1,0,.21l-10.32,6A.12.12,0,0,1,202.75,220.89Z"></path><path d="M202.75,222.26a.16.16,0,0,1-.08-.3L213,216a.16.16,0,0,1,.16.28l-10.32,6Z"></path><path d="M202.75,223.62a.16.16,0,0,1-.14-.08.17.17,0,0,1,.06-.22L213,217.37a.14.14,0,0,1,.21.06.15.15,0,0,1,0,.21l-10.32,6Z"></path><path d="M202.75,225a.15.15,0,0,1-.14-.07.16.16,0,0,1,.06-.22l10.32-6a.15.15,0,0,1,.21.06.16.16,0,0,1,0,.22l-10.32,6A.12.12,0,0,1,202.75,225Z"></path></g></g></g></g></g><g id="freepik--furniture-2--inject-60"><g id="freepik--Cabinet--inject-60"><g id="freepik--cabinet--inject-60"><polygon points="103.28 324.02 63.01 300.77 63.01 174.55 103.28 197.8 103.28 324.02" style="fill:#e0e0e0"></polygon><polygon points="103.28 197.8 172.34 157.93 172.34 284.15 103.28 324.02 103.28 197.8" style="fill:#ebebeb"></polygon><polygon points="172.34 157.93 103.28 197.8 63.01 174.55 132.06 134.68 172.34 157.93" style="fill:#f5f5f5"></polygon><polygon points="109.03 279.61 166.58 246.38 166.58 278.37 167.64 278.98 110.09 312.21 109.03 311.59 109.03 279.61" style="fill:#e0e0e0"></polygon><polygon points="110.09 280.22 167.64 246.99 167.64 278.98 110.09 312.21 110.09 280.22" style="fill:#f5f5f5"></polygon><path d="M132.2,272.88l7.82-4.52c1-.59,1.84-.32,1.84.6a3.67,3.67,0,0,1-1.84,2.72l-7.82,4.52c-1,.59-1.84.32-1.84-.6A3.67,3.67,0,0,1,132.2,272.88Z" style="fill:#e0e0e0"></path><polygon points="109.03 240.98 166.58 207.76 166.58 239.74 167.64 240.36 110.09 273.58 109.03 272.97 109.03 240.98" style="fill:#e0e0e0"></polygon><polygon points="110.09 241.59 167.64 208.37 167.64 240.36 110.09 273.58 110.09 241.59" style="fill:#f5f5f5"></polygon><path d="M132.2,234.25l7.82-4.52c1-.58,1.84-.31,1.84.6a3.69,3.69,0,0,1-1.84,2.73l-7.82,4.51c-1,.59-1.84.32-1.84-.59A3.69,3.69,0,0,1,132.2,234.25Z" style="fill:#e0e0e0"></path><polygon points="109.03 202.36 166.58 169.13 166.58 201.12 167.64 201.73 110.09 234.96 109.03 234.34 109.03 202.36" style="fill:#e0e0e0"></polygon><polygon points="110.09 202.97 167.64 169.74 167.64 201.73 110.09 234.96 110.09 202.97" style="fill:#f5f5f5"></polygon><path d="M132.19,195.63l7.83-4.52c1-.59,1.84-.32,1.84.6a3.67,3.67,0,0,1-1.84,2.72L132.19,199c-1,.59-1.84.32-1.84-.6A3.7,3.7,0,0,1,132.19,195.63Z" style="fill:#e0e0e0"></path></g></g></g><g id="freepik--Plant--inject-60"><g id="freepik--plant--inject-60"><g id="freepik--Pot--inject-60"><g id="freepik--pot--inject-60"><path d="M31,347.67c-10-10.28-15.82-43.81-6.1-52H74.37c9.72,8.15,3.87,41.66-6.09,52l-.27.28-.34.34a11.75,11.75,0,0,1-.9.81l-.24.19c-.24.19-.49.39-.75.57q-.65.47-1.29.84c-8.2,4.78-21.49,4.78-29.68,0h0a14.31,14.31,0,0,1-1.3-.84c-.25-.18-.47-.36-.7-.54l-.3-.23c-.31-.26-.59-.52-.86-.78l-.4-.39Z" style="fill:#ebebeb"></path><path d="M70.08,292.42c11.28,6.59,11.28,17.27,0,23.86s-29.58,6.59-40.86,0-11.29-17.27,0-23.86S58.8,285.83,70.08,292.42Z" style="fill:#f5f5f5"></path><path d="M64.65,295.59c8.29,4.84,8.29,12.68,0,17.52s-21.72,4.84-30,0-8.28-12.68,0-17.52S56.37,290.75,64.65,295.59Z" style="fill:#e0e0e0"></path><path d="M34.64,303.9c8.29-4.83,21.73-4.83,30,0a13.86,13.86,0,0,1,5,4.61,13.75,13.75,0,0,1-5,4.6c-8.28,4.84-21.72,4.84-30,0a13.75,13.75,0,0,1-5-4.6A13.86,13.86,0,0,1,34.64,303.9Z" style="fill:#fafafa"></path></g><g id="freepik--Plants--inject-60"><path d="M63.86,229.07,50.56,242.8l13.49-8.52a40,40,0,0,1-.71,13.93,88.54,88.54,0,0,0-10.14,9.4l10.44-5.8s1.71,7.16.15,18.63c-.41,3-2.94,9-4.46,13.37a47.36,47.36,0,0,1-2.47,5.95c0,.12-.12.24-.18.36q-4.05-1.67-8.4-3.15c-2.26-3.5-5.77-12.39-7.6-19.81-7-28.41,12.67-47.79,29.46-55.63C70.14,211.53,65.11,219.87,63.86,229.07Z" style="fill:#ebebeb"></path><path d="M51.6,231.9c-2.63,3.45-3.88,7.7-4.71,11.89a58.65,58.65,0,0,0-1,12.82,54.45,54.45,0,0,0,6.44,24.61h0a.42.42,0,0,1-.74.4h0a55.13,55.13,0,0,1-6.12-25,59.22,59.22,0,0,1,1.21-12.87C47.59,239.55,48.91,235.31,51.6,231.9Z" style="fill:#fff"></path><path d="M5.25,240.1l0,0c.31.54,5.39,9.33,12.31,25.92L33,271.41l-12.09,0,4.53,11.09,15.08,6L28,288.31s1.29,12.53,9.15,19.05c4.35,3.6,6.43,4,8.33,3.31,2.32-.88,3.92-4.13,5.67-9.08s1.8-15.58-1.25-26.46a32.08,32.08,0,0,0-3.7-8.25C36.87,251.94,16.1,241.85,5.25,240.1Z" style="fill:#f0f0f0"></path><path d="M21,248.25a65.78,65.78,0,0,1,19.42,19.19A44.27,44.27,0,0,1,46,280a41.83,41.83,0,0,1,1.15,13.68s0,0,0,0a0,0,0,0,1,0,0,53.73,53.73,0,0,0-1.92-13.45,49.75,49.75,0,0,0-5.33-12.44c-4.72-7.78-11.43-14.23-18.86-19.5a0,0,0,1,1,0-.07Z" style="fill:#fff"></path><path d="M104.06,245.49h0a41.33,41.33,0,0,0-4.79.22,76.9,76.9,0,0,0-18.34,4.47c-2.19.81-4.39,1.74-6.55,2.77-1.08.51-2.15,1.06-3.2,1.63A52.87,52.87,0,0,0,57.13,265.2a33.7,33.7,0,0,0-4.84,6.8c-.17.31-.35.62-.51.95h0c-.41.84-.78,1.66-1.13,2.48-4,9.15-4.39,15.51-4.13,22.56.19,5.46,2,11.71,3.12,12.74a2.3,2.3,0,0,0,.47.35c1.56,1,4,.42,8.67-2.17,9.29-5.2,12.93-18.35,12.93-18.35l-12.9-2.19,16.57-3.31,6.73-10.49-12.39-2.26,16.83-2.59C96.76,254.05,103.62,246,104,245.52l0,0Z" style="fill:#f0f0f0"></path><path d="M99.27,245.71a76.9,76.9,0,0,0-18.34,4.47c-2.19.81-4.39,1.74-6.55,2.77-1.08.51-2.15,1.06-3.2,1.63A52.87,52.87,0,0,0,57.13,265.2a33.7,33.7,0,0,0-4.84,6.8c-.17.31-.35.62-.51.95h0c-.41.84-.78,1.66-1.13,2.48-4,9.15-4.39,15.51-4.13,22.56.19,5.46,2,11.71,3.12,12.74a2.3,2.3,0,0,0,.47.35,2.89,2.89,0,0,0,1,.38c-1.15-8.48,3-30,9.33-38.81C67,263.46,82.62,250.12,104,245.52l0,0A42.88,42.88,0,0,0,99.27,245.71Z" style="fill:#e6e6e6"></path><path d="M51.08,311.46a72.76,72.76,0,0,1,1.22-18.74,60.41,60.41,0,0,1,6.22-17.78c3.17-5.53,7.73-10.05,12.58-14.05a70.34,70.34,0,0,1,16.15-9.68.05.05,0,0,1,.07,0,0,0,0,0,1,0,.06,93.32,93.32,0,0,0-15.53,10.4A67.19,67.19,0,0,0,65,268.05a41.49,41.49,0,0,0-5.7,7.32,59.85,59.85,0,0,0-6.43,17.45,72,72,0,0,0-1.63,18.64,0,0,0,0,1,0,.05A.06.06,0,0,1,51.08,311.46Z" style="fill:#fff"></path></g></g></g></g><g id="freepik--Water--inject-60"><g id="freepik--water--inject-60"><path d="M287.9,163.59l20.34-11.75a12.45,12.45,0,0,1,11.22,0l20.34,11.75a12.4,12.4,0,0,1,5.61,9.71v96.78L313.85,288.3l-31.56-18.22V173.3A12.4,12.4,0,0,1,287.9,163.59Z" style="fill:#f5f5f5"></path><path d="M313.85,191.52a12.4,12.4,0,0,0-5.61-9.71L287.9,170.07c-3.1-1.79-5.61-.34-5.61,3.23v96.78l31.56,18.22Z" style="fill:#ebebeb"></path><path d="M345.41,173.3v96.78L313.85,288.3V191.52a11.92,11.92,0,0,0-2.28-6.52l31.55-18.22A12,12,0,0,1,345.41,173.3Z" style="fill:#e0e0e0"></path><polygon points="284.92 186.71 311.22 201.9 311.22 236.86 284.92 221.67 284.92 186.71" style="fill:#f5f5f5"></polygon><polygon points="292.19 217.47 292.19 190.88 311.22 201.9 311.22 228.49 292.19 217.47" style="fill:#e0e0e0"></polygon><polygon points="292.19 217.47 284.92 221.67 311.22 236.86 311.22 228.49 292.19 217.47" style="fill:#ebebeb"></polygon><path d="M288.79,188.94l1,4.64,1,.6a3.22,3.22,0,0,0,3.22,0l.2-.11.4-1.77Z" style="fill:#fafafa"></path><path d="M301.51,196.28l1,4.72,1,.59a3.22,3.22,0,0,0,3.22,0l.2-.11.4-1.81Z" style="fill:#fafafa"></path><path d="M340.33,155.07c0-3.49-2.64-7-7.24-9.67-5-2.9-12-4.56-19.23-4.56s-14.2,1.66-19.22,4.56c-4.6,2.66-7.24,6.18-7.24,9.67v4.31c0,3.49,2.64,7,7.24,9.67,5,2.9,12,4.56,19.22,4.56s14.21-1.66,19.23-4.56c4.6-2.66,7.24-6.18,7.24-9.67Z" style="fill:#e0e0e0"></path><path d="M313.86,169.3c-7.19,0-14.2-1.66-19.22-4.56-4.6-2.65-7.24-6.18-7.24-9.67s2.64-7,7.24-9.67c5-2.9,12-4.56,19.22-4.56s14.21,1.66,19.23,4.56c4.6,2.66,7.24,6.18,7.24,9.67s-2.64,7-7.24,9.67C328.07,167.64,321.06,169.3,313.86,169.3Z" style="fill:#fafafa"></path><path d="M342.71,149.15V93.24c.56-4.66-2.21-9.43-8.38-13-11.3-6.53-29.63-6.53-40.93,0-5.67,3.27-8.49,7.56-8.48,11.85h0v59.55H285c.52,3.82,3.3,7.57,8.37,10.49,11.3,6.53,29.63,6.53,40.93,0,5.07-2.92,7.84-6.67,8.37-10.49h0v-.16A10.17,10.17,0,0,0,342.71,149.15Z" style="fill:#e6e6e6"></path><path d="M313.86,163.32c-7.09,0-13.69-1.56-18.6-4.4-3.84-2.21-6.17-5-6.55-7.78l-.07-.53V112.07c0-3,2.4-6.19,6.62-8.63,4.91-2.83,11.51-4.39,18.6-4.39s13.7,1.56,18.61,4.39c4.56,2.64,6.95,6,6.55,9.33l0,.22v36.39l0,.22a5.86,5.86,0,0,1,0,1.45l0,.24c-.44,2.75-2.75,5.46-6.52,7.63C327.56,161.76,321,163.32,313.86,163.32Z" style="fill:#fff;opacity:0.4"></path><path d="M332.47,103.44a39.21,39.21,0,0,0-18.61-4.39,44.1,44.1,0,0,0-18.6,4.39c-4.24,2-6.66,5.53-6.62,9.33s2.38,7.33,6.62,9.32a44.1,44.1,0,0,0,18.6,4.39c7.09,0,13.7-1.56,18.61-4.39,4.56-2.64,6.55-5.91,6.55-9.32C339.24,109.23,337.14,106,332.47,103.44Z" style="fill:#f5f5f5"></path><path d="M313.86,106.3c-7.19,0-14.2-1.66-19.22-4.56-4.6-2.66-7.24-6.18-7.24-9.67s2.64-7,7.24-9.67c5-2.9,12-4.57,19.22-4.57s14.21,1.67,19.23,4.56c4.6,2.66,7.24,6.19,7.24,9.68s-2.64,7-7.24,9.67C328.07,104.64,321.06,106.3,313.86,106.3Z" style="fill:#f0f0f0"></path><path d="M303.77,186.91l-1.12.65.05.1a1.49,1.49,0,0,0-.2.81,3.85,3.85,0,0,0,1.73,3,1.5,1.5,0,0,0,.81.23l0,.1,1.13-.65h0a1.22,1.22,0,0,0,.5-1.12,3.82,3.82,0,0,0-1.73-3A1.23,1.23,0,0,0,303.77,186.91Z" style="fill:#e0e0e0"></path><path d="M305.6,190.68c0,1.1-.78,1.55-1.73,1a3.82,3.82,0,0,1-1.73-3c0-1.1.77-1.55,1.73-1A3.85,3.85,0,0,1,305.6,190.68Z" style="fill:#fafafa"></path><path d="M291,179.64l-1.12.65.05.1a1.59,1.59,0,0,0-.19.81,3.81,3.81,0,0,0,1.73,3,1.58,1.58,0,0,0,.8.24l.06.09,1.12-.65h0a1.22,1.22,0,0,0,.51-1.12,3.83,3.83,0,0,0-1.73-3A1.22,1.22,0,0,0,291,179.64Z" style="fill:#e0e0e0"></path><path d="M292.87,183.41c0,1.11-.77,1.55-1.73,1a3.83,3.83,0,0,1-1.73-3c0-1.1.78-1.55,1.73-1A3.84,3.84,0,0,1,292.87,183.41Z" style="fill:#fafafa"></path></g></g><g id="freepik--furniture-1--inject-60"><g id="freepik--Drawer--inject-60"><g id="freepik--drawer--inject-60"><polygon points="428.01 341.51 431.96 361.09 435.8 363.31 439.6 361.11 443.58 341.51 435.8 337.01 428.01 341.51" style="fill:#e0e0e0"></polygon><polygon points="428.01 341.51 431.96 361.09 435.8 363.31 439.6 361.11 443.58 341.51 435.8 337.01 428.01 341.51" style="opacity:0.05"></polygon><polygon points="435.8 363.31 435.8 346 428.01 341.51 431.96 361.09 435.8 363.31" style="fill:#ebebeb"></polygon><polygon points="428.01 341.51 430.56 354.15 435.8 357.18 441.01 354.17 443.58 341.51 435.8 337.01 428.01 341.51" style="opacity:0.05"></polygon><polygon points="462.24 321.75 466.19 341.33 470.03 343.54 473.83 341.35 477.81 321.75 470.03 317.25 462.24 321.75" style="fill:#e0e0e0"></polygon><polygon points="462.24 321.75 466.19 341.33 470.03 343.54 473.83 341.35 477.81 321.75 470.03 317.25 462.24 321.75" style="opacity:0.05"></polygon><polygon points="470.03 343.54 470.03 326.24 462.24 321.75 466.19 341.33 470.03 343.54" style="fill:#ebebeb"></polygon><polygon points="462.24 321.75 464.79 334.39 470.03 337.41 475.24 334.4 477.81 321.75 470.03 317.25 462.24 321.75" style="opacity:0.05"></polygon><polygon points="326.76 283.05 330.71 302.63 334.55 304.85 338.35 302.65 342.33 283.05 334.55 278.55 326.76 283.05" style="opacity:0.05"></polygon><polygon points="334.55 304.85 334.55 287.54 326.76 283.05 330.71 302.63 334.55 304.85" style="fill:#ebebeb"></polygon><polygon points="326.76 283.05 329.31 295.69 334.55 298.72 339.76 295.71 342.33 283.05 334.55 278.55 326.76 283.05" style="opacity:0.05"></polygon><g id="freepik--cabinet--inject-60"><g id="freepik--cabinet--inject-60"><polygon points="435.8 354.02 478.22 329.52 478.22 237.71 435.8 262.2 435.8 354.02" style="fill:#e0e0e0"></polygon><polygon points="435.8 262.2 324.56 197.98 324.56 289.79 435.8 354.02 435.8 262.2" style="fill:#ebebeb"></polygon><polygon points="324.56 197.98 435.8 262.2 478.22 237.71 366.98 173.49 324.56 197.98" style="fill:#f5f5f5"></polygon><polygon points="429.74 307.69 330.62 250.46 330.62 284.15 329.5 284.8 428.63 342.02 429.74 341.38 429.74 307.69" style="fill:#e0e0e0"></polygon><polygon points="428.63 308.33 329.5 251.1 329.5 284.8 428.63 342.02 428.63 308.33" style="fill:#f5f5f5"></polygon><path d="M381,287.18l-8.24-4.76c-1.07-.61-1.94-.33-1.94.63a3.87,3.87,0,0,0,1.94,2.87l8.24,4.76c1.07.62,1.94.34,1.94-.63A3.9,3.9,0,0,0,381,287.18Z" style="fill:#e0e0e0"></path><polygon points="429.74 267 330.62 209.77 330.62 243.47 329.5 244.11 428.63 301.34 429.74 300.69 429.74 267" style="fill:#e0e0e0"></polygon><polygon points="428.63 267.65 329.5 210.42 329.5 244.11 428.63 301.34 428.63 267.65" style="fill:#f5f5f5"></polygon><path d="M381,246.5l-8.24-4.76c-1.07-.62-1.94-.34-1.94.63a3.88,3.88,0,0,0,1.94,2.87L381,250c1.07.62,1.94.33,1.94-.63A3.88,3.88,0,0,0,381,246.5Z" style="fill:#e0e0e0"></path></g></g></g></g></g><g id="freepik--Windows--inject-60"><g id="freepik--Window--inject-60"><g id="freepik--window--inject-60"><polygon points="476.67 182.24 474.38 182.39 361.44 117.14 362.58 116.31 476.67 182.24" style="fill:#fafafa"></polygon><polygon points="362.58 116.31 474.38 180.92 474.38 86.26 362.58 21.66 362.58 116.31" style="fill:#fff"></polygon><path d="M359.15,118.46l117.52,67.9V84.94L359.15,17.05ZM361.44,21,474.38,86.26v96.13L361.44,117.14Z" style="fill:#f0f0f0"></path><polygon points="361.44 117.14 362.58 116.31 362.58 21.66 361.44 21.01 361.44 117.14" style="fill:#e0e0e0"></polygon><polygon points="359.15 17.05 360.29 16.39 477.81 84.28 476.67 84.94 359.15 17.05" style="fill:#fafafa"></polygon><polygon points="477.81 84.28 476.67 84.94 476.67 186.36 477.81 185.7 477.81 84.28" style="fill:#e0e0e0"></polygon><polygon points="474.38 133.47 362.58 68.85 361.44 69.53 474.38 134.78 474.38 133.47" style="fill:#fafafa"></polygon><polygon points="361.44 69.53 361.44 72.09 474.38 137.34 474.38 134.78 361.44 69.53" style="fill:#f0f0f0"></polygon></g><g id="freepik--Blinds--inject-60"><polygon points="474.38 88.18 362.58 23.58 361.98 26.26 474.38 91.23 474.38 88.18" style="fill:#f0f0f0"></polygon><polygon points="474.38 88.18 474.38 89.4 362.35 24.65 362.58 23.58 474.38 88.18" style="fill:#e0e0e0"></polygon><polygon points="474.38 92.45 362.58 27.85 361.98 30.53 474.38 95.5 474.38 92.45" style="fill:#f0f0f0"></polygon><polygon points="474.38 92.45 474.38 93.67 362.35 28.92 362.58 27.85 474.38 92.45" style="fill:#e0e0e0"></polygon><polygon points="474.38 96.72 362.58 32.12 361.98 34.8 474.38 99.77 474.38 96.72" style="fill:#f0f0f0"></polygon><polygon points="474.38 96.72 474.38 97.94 362.35 33.19 362.58 32.12 474.38 96.72" style="fill:#e0e0e0"></polygon><polygon points="474.38 100.98 362.58 36.39 361.98 39.07 474.38 104.04 474.38 100.98" style="fill:#f0f0f0"></polygon><polygon points="474.38 100.98 474.38 102.21 362.35 37.45 362.58 36.39 474.38 100.98" style="fill:#e0e0e0"></polygon><polygon points="474.38 105.25 362.58 40.66 361.98 43.34 474.38 108.31 474.38 105.25" style="fill:#f0f0f0"></polygon><polygon points="474.38 105.25 474.38 106.48 362.35 41.72 362.58 40.66 474.38 105.25" style="fill:#e0e0e0"></polygon><polygon points="474.38 109.52 362.58 44.93 361.98 47.61 474.38 112.58 474.38 109.52" style="fill:#f0f0f0"></polygon><polygon points="474.38 109.52 474.38 110.75 362.35 45.99 362.58 44.93 474.38 109.52" style="fill:#e0e0e0"></polygon><polygon points="474.38 113.79 362.58 49.2 361.98 51.88 474.38 116.84 474.38 113.79" style="fill:#f0f0f0"></polygon><polygon points="474.38 113.79 474.38 115.02 362.35 50.26 362.58 49.2 474.38 113.79" style="fill:#e0e0e0"></polygon><polygon points="474.38 118.06 362.58 53.47 361.98 56.15 474.38 121.11 474.38 118.06" style="fill:#f0f0f0"></polygon><polygon points="474.38 118.06 474.38 119.29 362.35 54.53 362.58 53.47 474.38 118.06" style="fill:#e0e0e0"></polygon><polygon points="474.38 122.33 362.58 57.74 361.98 60.42 474.38 125.38 474.38 122.33" style="fill:#f0f0f0"></polygon><polygon points="474.38 122.33 474.38 123.56 362.35 58.8 362.58 57.74 474.38 122.33" style="fill:#e0e0e0"></polygon><polygon points="474.38 126.6 362.58 62.01 361.98 64.69 474.38 129.65 474.38 126.6" style="fill:#f0f0f0"></polygon><polygon points="474.38 126.6 474.38 127.83 362.35 63.07 362.58 62.01 474.38 126.6" style="fill:#e0e0e0"></polygon></g></g><g id="freepik--window--inject-60"><g id="freepik--window--inject-60"><polygon points="25.1 182.24 27.39 182.39 140.32 117.14 139.18 116.31 25.1 182.24" style="fill:#fafafa"></polygon><polygon points="139.18 116.31 27.39 180.92 27.39 86.26 139.18 21.66 139.18 116.31" style="fill:#fff"></polygon><path d="M142.61,17.05,25.1,84.94V186.36l117.51-67.9Zm-2.29,100.09L27.39,182.39V86.26L140.32,21Z" style="fill:#f0f0f0"></path><polygon points="140.32 117.14 139.18 116.31 139.18 21.66 140.32 21.01 140.32 117.14" style="fill:#e0e0e0"></polygon><polygon points="142.61 17.05 141.47 16.39 23.95 84.28 25.1 84.94 142.61 17.05" style="fill:#fafafa"></polygon><polygon points="23.95 84.28 25.1 84.94 25.1 186.36 23.95 185.7 23.95 84.28" style="fill:#e0e0e0"></polygon><polygon points="27.39 133.47 139.18 68.85 140.32 69.53 27.39 134.78 27.39 133.47" style="fill:#fafafa"></polygon><polygon points="140.32 69.53 140.32 72.09 27.39 137.34 27.39 134.78 140.32 69.53" style="fill:#f0f0f0"></polygon></g><g id="freepik--blinds--inject-60"><polygon points="27.39 88.18 139.18 23.58 139.78 26.26 27.39 91.23 27.39 88.18" style="fill:#f0f0f0"></polygon><polygon points="27.39 88.18 27.39 89.4 139.42 24.65 139.18 23.58 27.39 88.18" style="fill:#e0e0e0"></polygon><polygon points="27.39 92.45 139.18 27.85 139.78 30.53 27.39 95.5 27.39 92.45" style="fill:#f0f0f0"></polygon><polygon points="27.39 92.45 27.39 93.67 139.42 28.92 139.18 27.85 27.39 92.45" style="fill:#e0e0e0"></polygon><polygon points="27.39 96.72 139.18 32.12 139.78 34.8 27.39 99.77 27.39 96.72" style="fill:#f0f0f0"></polygon><polygon points="27.39 96.72 27.39 97.94 139.42 33.19 139.18 32.12 27.39 96.72" style="fill:#e0e0e0"></polygon><polygon points="27.39 100.98 139.18 36.39 139.78 39.07 27.39 104.04 27.39 100.98" style="fill:#f0f0f0"></polygon><polygon points="27.39 100.98 27.39 102.21 139.42 37.45 139.18 36.39 27.39 100.98" style="fill:#e0e0e0"></polygon><polygon points="27.39 105.25 139.18 40.66 139.78 43.34 27.39 108.31 27.39 105.25" style="fill:#f0f0f0"></polygon><polygon points="27.39 105.25 27.39 106.48 139.42 41.72 139.18 40.66 27.39 105.25" style="fill:#e0e0e0"></polygon><polygon points="27.39 109.52 139.18 44.93 139.78 47.61 27.39 112.58 27.39 109.52" style="fill:#f0f0f0"></polygon><polygon points="27.39 109.52 27.39 110.75 139.42 45.99 139.18 44.93 27.39 109.52" style="fill:#e0e0e0"></polygon><polygon points="27.39 113.79 139.18 49.2 139.78 51.88 27.39 116.84 27.39 113.79" style="fill:#f0f0f0"></polygon><polygon points="27.39 113.79 27.39 115.02 139.42 50.26 139.18 49.2 27.39 113.79" style="fill:#e0e0e0"></polygon><polygon points="27.39 118.06 139.18 53.47 139.78 56.15 27.39 121.11 27.39 118.06" style="fill:#f0f0f0"></polygon><polygon points="27.39 118.06 27.39 119.29 139.42 54.53 139.18 53.47 27.39 118.06" style="fill:#e0e0e0"></polygon><polygon points="27.39 122.33 139.18 57.74 139.78 60.42 27.39 125.38 27.39 122.33" style="fill:#f0f0f0"></polygon><polygon points="27.39 122.33 27.39 123.56 139.42 58.8 139.18 57.74 27.39 122.33" style="fill:#e0e0e0"></polygon><polygon points="27.39 126.6 139.18 62.01 139.78 64.69 27.39 129.65 27.39 126.6" style="fill:#f0f0f0"></polygon><polygon points="27.39 126.6 27.39 127.83 139.42 63.07 139.18 62.01 27.39 126.6" style="fill:#e0e0e0"></polygon></g></g></g><g id="freepik--character-2--inject-60"><g id="freepik--Character--inject-60"><g id="freepik--Bottom--inject-60"><path d="M242.76,389.05c0,1.93-.36,2.67,2,4.41s7.46,2.53,11.34,1.48c3.4-.91,4.64-1.89,6.27-3.78a50.43,50.43,0,0,0,3.64-5.49c.69-.87,3.84-2.53,6.89-3.88,3.21-1.43,9.36-4.26,11.56-9.47s.68-8.93.68-8.93Z" style="fill:#263238"></path><path d="M263.26,362.63c-6.21,4.06-11.44,14.25-19.93,11.15-.43,5-1.75,10.37-.57,15.27,3.62,4.48,11.56,5.34,16.12,2.12,2.3-2,3.59-4.26,5.81-6.33a22.36,22.36,0,0,1,6.11-3.72,64.54,64.54,0,0,0,7.39-4.09C291.92,366.9,285.11,348.36,263.26,362.63Z" style="fill:#455a64"></path><path d="M285.17,411c0,2.08.13,3.65,1.41,4.53s10.8,2.45,13.33,2.74,2.9-1.37,4.68-.78,5.91,3.62,12.12,5,11.3,2.84,19.91,0,9.47-6.18,9.36-9.09S285.17,411,285.17,411Z" style="fill:#263238"></path><path d="M286.41,391.49c-1.39,6-2.86,14.91-1.24,19.46,1.73,1.72,7.55,2.73,12.63,3.42a38.9,38.9,0,0,1,13.43,4.18c9.86,4.11,27.18,5.61,34.09-3.67,6.89-12.38-29-9.33-33.38-23.66C310.34,386,292.93,392.9,286.41,391.49Z" style="fill:#455a64"></path><path d="M240,322.52c4.8-50.91,2.32-91.59,6.89-132.57,0,0,67.94-7.85,69.7,16.43s2,92.64,1.49,103.34c-.25,10.83-4.15,77-4.15,84.6-17.76,8.82-28.77,2.16-28.77,2.16.11-9.86-7.6-46.73-3.42-70.78l-2.84-46.88S266.72,358,264.66,377.71c-5.24,7.78-20.13,6-22.61,1.27C242.05,379,238.33,337.51,240,322.52Z" style="fill:#37474f"></path><path d="M278.91,278.82l-3.15-39.31S262.29,237,254.5,227.29c2.12,7.79,10.58,14.56,15.94,16.46l5.35,33.37L273.57,314Z" style="fill:#263238"></path><path d="M269.4,271.11c-.84,13.48-1.71,27.42-2.89,34-1.84,10.27-7,64.29-8.24,77.09.4-.13.8-.28,1.19-.44,1.31-13.7,6.37-66.36,8.18-76.45,1.19-6.64,2.07-20.62,2.91-34.13.64-10.17,1.24-19.78,1.9-24.77l-1.14-.16C270.64,251.29,270,260.92,269.4,271.11Z" style="fill:#263238"></path><path d="M304.91,397.73c1.54-23.05,5.22-73.94,4.93-97.26-.36-27.84-1.29-77.24-3.55-95.23l-1.14.14c2.25,17.94,3.18,67.29,3.54,95.11.3,23.4-3.43,74.74-4.95,97.52C304.13,397.93,304.52,397.84,304.91,397.73Z" style="fill:#263238"></path><path d="M307.4,233.87c6.29-6.35,5.42-19.62,4.86-27.9,0-.69-.09-1.35-.13-2l1.15-.07c0,.62.09,1.27.13,2,.6,8.83,1.56,23.21-6,29.58Z" style="fill:#263238"></path></g><g id="freepik--Top--inject-60"><path d="M262.16,105c2.47-2.09,3.85-8.65,2.61-12.22s-6.26-12.05-6.94-22.28,13.11-26,25-24.72S301,53.59,304.2,62.47c1.95,5.41-.05,6.46.7,9.57,1.48,6.13,3.68,10.86.83,22.57-1,4.28-4.66,5.93-8.07,6.76a24.36,24.36,0,0,1-7.69.26,76.52,76.52,0,0,0-.05,7.94,3.66,3.66,0,0,0,3.44,3.54S259.7,107.1,262.16,105Z" style="fill:#ffa8a7"></path><path d="M296.88,88.26a3.65,3.65,0,1,1-7-2Z" style="fill:#b16668"></path><path d="M294.13,90.8a5.16,5.16,0,0,0-4.4-3.33,3.66,3.66,0,0,0,2.62,3.29A3.59,3.59,0,0,0,294.13,90.8Z" style="fill:#f28f8f"></path><path d="M289.29,74.3a1.9,1.9,0,1,1-2.4-1.31A1.94,1.94,0,0,1,289.29,74.3Z" style="fill:#263238"></path><path d="M289.14,67.22l-4.33,1.65a2.44,2.44,0,0,1,1.38-3.07A2.26,2.26,0,0,1,289.14,67.22Z" style="fill:#263238"></path><path d="M303.84,68.88l-4.35-1.7a2.24,2.24,0,0,1,2.95-1.38A2.47,2.47,0,0,1,303.84,68.88Z" style="fill:#263238"></path><path d="M302.39,73.4a1.75,1.75,0,1,1-1.74-1.83A1.79,1.79,0,0,1,302.39,73.4Z" style="fill:#263238"></path><path d="M304.17,81.92l-6.77,3-2.14-13.29C297.77,70.76,301,76.86,304.17,81.92Z" style="fill:#f28f8f"></path><path d="M290,101.63s-6.41-1-8.23-2c-4.94-2.82-6.73-5-7.84-8.08a13.15,13.15,0,0,0,7.27,9.82,43.82,43.82,0,0,0,8.66,2.64Z" style="fill:#f28f8f"></path><path d="M272.21,85.76c.08,1.9-.28,5.14-2.22,6.55s-3.09,2.12-4.92,1.62c-.62-1.71-2.55-6.14-4.42-9.89s-10.19-17.88-2.23-23.25c-1.74-5.75,1-11.53,6.05-15.07,4.24-3,14.17-3.13,20.89-2.07,15.86,2.51,18.37-1.86,20.62-.76s.68,6.59-1.11,8.2c2.47-.52,4.3.78,3,3.84s-4.66,5.18-10.32,6.06a38.7,38.7,0,0,1-20.09-2,31.74,31.74,0,0,1,2.17,6.89,7.21,7.21,0,0,1-1.78,5.92c-1.22,1.16.52,4.21.26,5.5s-1.82,3.81-4.18-1.08-7.45-5-9.52-2.56-2,5,0,9.35C266,86.52,270,87.91,272.21,85.76Z" style="fill:#263238"></path><path d="M244.4,106.84c-7.26,1.53-10.84,9.68-11,24.4a166.15,166.15,0,0,0,3.33,36.68c1.36,6.09,4.45,9,15.89,7.52,19.1-2.48,40.71-6.92,40.71-6.92l-3.32-15-33.19,2.14Z" style="fill:#37474f"></path><path d="M250,106.59c10.42-2.17,27.46.5,42.92,8,7.28,3.54,12.69,5.52,17.35,8.12s6.84,12.15,7.35,19.49c1.27,18.74.2,28.8,0,40.93-.32,18.07,0,27.82,0,27.82s-21.73,11.93-56.2,1.51C244.63,207.39,245.29,199,245.22,193s.61-26.63-3.3-43.55S237.31,109.22,250,106.59Z" style="fill:#f0f0f0"></path><path d="M296.27,116.18c-5.4-4.86-3.77-5.12-7.27-8-4.36-3.59-23.42-8-24.95-6.49a20.61,20.61,0,0,1-5.63,4.17s.91,2.93,12.42,5.71C281.81,114.23,286.15,113.86,296.27,116.18Z" style="fill:#f0f0f0"></path><path d="M261.88,103.64c6.34,1.06,17.76,4.14,23.77,5.78s14.25,7.08,14.25,7.08,11.54,5,13,6.61,4.32,8.86,5.48,24.68S319.83,230,319.83,230a65.23,65.23,0,0,1-7,1.72l-2.21-18-2.43,18.88s-21.73,1.48-39.92-2.32S242,214.71,242,214.71s2.71-38.13,2-44.61-6.41-33.86-5.78-44.62,2.37-18.63,9-19.62C255.3,104.66,261.88,103.64,261.88,103.64Z" style="fill:#455a64"></path><path d="M258.8,106.92c1.64.64,3.33,1.14,5,1.63s3.38,1,5.08,1.45c3.4.92,6.8,1.84,10.22,2.69s6.84,1.51,10.32,2.11l10.45,1.7c-3.54-.17-7-.51-10.56-.94a84.17,84.17,0,0,1-10.45-1.9c-3.43-.88-6.84-1.83-10.2-2.93A69.64,69.64,0,0,1,258.8,106.92Z" style="fill:#37474f"></path><path d="M265.36,128.86c1.46,7.12,2.6,14.31,3.36,21.55a142.06,142.06,0,0,1,.7,21.83L268.2,194l-.7,10.87-.8,10.87.31-10.89.42-10.89,1-21.77a149.92,149.92,0,0,0-.46-21.71c-.29-3.61-.68-7.22-1.13-10.82S265.88,132.46,265.36,128.86Z" style="fill:#37474f"></path><path d="M311.47,201c6.25-1,8.36-3,8.36-3v4.63s-4.61,2.41-8.36,2.58Z" style="fill:#37474f"></path><path d="M312.87,123.11c-3.22-2-8.33-1-11.78,9.6s-2.19,15.6-1.19,21.55c.61,3.7,15.51,33.13,19.93,37.87s11.6,5.06,15,.81,5.38-10.12,0-23.5S317.23,127.47,312.87,123.11Z" style="fill:#37474f"></path><path d="M329.36,156.67c.45,1.27.42,2-1.06,3s-4.07,2.7-5.66,3.79a1.92,1.92,0,0,0-.55,3c.4.47,1.39.46,4.91-.86s5.06-1.62,5.44-1.06a3.18,3.18,0,0,1-.64,3.45c-1.11,1.17-6.05,3.22-6.7,4.58s-.42,3.29,2.47,2.15,6-3,7.09-3.52c.71-.31.94,0,1.14,1.3a2.21,2.21,0,0,1-.7,2.25c-1.1.91-3.68,2.81-4.47,4-1,1.47-.6,3.29.95,2.6a51.41,51.41,0,0,0,5.46-3.41c2.07-1.37,3.32-2.3,3.48-5.24s0-4.75-.62-5.16-.27-2.23-1.14-2.89-2.37-.54-2.41-2.43-.63-3.49-2.34-3.91-2.3-.92-2.4-3-1.06-2.28-4-3.33-3.34-1.22-4.08-1.46-1.68,2.06.67,3.29S329.36,156.67,329.36,156.67Z" style="fill:#ffa8a7"></path></g></g></g><g id="freepik--character-1--inject-60"><g id="freepik--character--inject-60"><g id="freepik--bottom--inject-60"><path d="M260.6,400.25c.49,2.76,1.41,5.95,2.18,11.59s-.47,5.85,3.11,20c2.15,8.48,1.73,11.85-3.5,18.94-5.6,7.59-11.38,6-15.09-2.51-3.17-7.27-3-10.63-2.91-18.14s0-9.69-.31-15.64c-.26-5.25.2-8.83-.1-12.85Z" style="fill:#37474f"></path><path d="M262.16,420.83c-1-7.28-1.17-14.82-1.51-19.73-.76-11,1.64-32.77.19-49.34l-27.89-3c.89,6.46,8.38,35.72,11.05,53.37,0,0,.93,23.93,2.38,34.47a2,2,0,0,0,2.83,1.59,18.35,18.35,0,0,1,12.64-.72,2,2,0,0,0,2.71-1.91C264.52,431.63,262.9,426.29,262.16,420.83Z" style="fill:#b16668"></path><path d="M180.07,347.66c.4,22.93.44,43.22-.3,49.18s-1.06,8-2.53,12.15-4,9.75-6.19,12.46c0,0-6.46,7.07-5,7.77s15.2,2,21.32,0,6.7-7.15,8.67-16.69,3.59-23.46,3.59-23.46a6,6,0,0,1-.65-1.6c-.85-2.73,1.55-9.9,2.09-16.81Z" style="fill:#b16668"></path><path d="M205.93,403.24c-.38,2.22-2.25,4.76-3.06,8.23a61,61,0,0,0-1.63,12l-.24,5.66-1.54-.06s.3-7.17.43-10.32-.08-5.45-1.57-5.86C198.32,412.94,198.49,402.92,205.93,403.24Z" style="fill:#263238"></path><path d="M199.37,387.83c1,2.61,4.42,6.26,5.88,8.75a9.35,9.35,0,0,1,1.23,4.29,4.49,4.49,0,0,1-1.31,3.39,49.35,49.35,0,0,0-4.7,5.34c-1.85,2.54-5.29,8.47-6.22,12.64s-1.44,7.83-5,9.94c-2.76,1.64-14.14,4-19.91,4.47-7.88.6-10-3.16-7.06-6.23s7.86-8.31,8.75-9a14.32,14.32,0,0,1,7.34.93c4.44,1.84,5.88,4.39,10.49,2,4.17-2.14,5.74-9.93,5.24-21.09C193.55,390.63,199.37,387.83,199.37,387.83Z" style="fill:#37474f"></path><path d="M240.17,190.6c.54,2.87,1.15,5.56,2.2,7,6.4,8.73,12.93,19.31,14.2,35.66a720.93,720.93,0,0,1,1.36,77.55c.32,3.48,3.07,11.91,3.7,31.8.5,15.85-.24,40.5-.24,40.5s-11.31,5.65-21.23,2c-4.08-15.09-11-51.39-15-68.66-4.26-18.21-8.65-39.93-8.65-39.93l-6.42,31.95a92.2,92.2,0,0,1,0,20.6c-1.13,10.6-9.26,48-9.26,48s-12.57,4-21.13-1.84c0,0-1.42-52.79-1.58-64.44s1.21-80.91,8.15-111.42a67,67,0,0,0,.37-7.09C195,199.09,229.11,198.17,240.17,190.6Z" style="fill:#E5FF00"></path><path d="M261.55,377.62c-4.28,4-17.5,5.14-22.71,2.42l1.67,8.22s3.44,2.29,11,1.56,9.89-3.77,9.89-3.77Z" style="fill:#E5FF00"></path><g style="opacity:0.2"><path d="M261.55,377.62c-4.28,4-17.5,5.14-22.71,2.42l1.67,8.22s3.44,2.29,11,1.56,9.89-3.77,9.89-3.77Z" style="fill:#fff"></path></g><path d="M202,371.81c-4.47,1.54-17.81.93-22.73-2l.3,7.08s2.78,2.61,10.3,3.31,10.77-1.44,10.77-1.44Z" style="fill:#E5FF00"></path><g style="opacity:0.2"><path d="M202,371.81c-4.47,1.54-17.81.93-22.73-2l.3,7.08s2.78,2.61,10.3,3.31,10.77-1.44,10.77-1.44Z" style="fill:#fff"></path></g><g style="opacity:0.2"><path d="M216.47,276.49l-5.42-39a24.68,24.68,0,0,1-19.83-9.25s-.2,9.76,15.9,14l6.34,35.92-3.41,30.22Z"></path></g><path d="M186.33,198.79s8.16,6,27.22,5,28.23-7.18,28.1-7.51h0a26.73,26.73,0,0,1-1.34-5,6.3,6.3,0,0,1-.14-.72c-11.06,7.57-45.16,8.49-53.56,1.67,0,0,0,4.56-.28,6.52Z" style="fill:#263238"></path></g><g id="freepik--top--inject-60"><path d="M202.39,128.43c-8.86,2.66-10.61,2.8-15.35,5.68s-8.42,7-18.17,29.49c-4.63,10.68-8.77,27.2-4.87,31.53s14.53,3.6,14.53,3.6L183.18,187Z" style="fill:#E5FF00"></path><path d="M202.39,128.43c-8.86,2.66-10.61,2.8-15.35,5.68s-8.42,7-18.17,29.49c-4.63,10.68-8.77,27.2-4.87,31.53s14.53,3.6,14.53,3.6L183.18,187Z" style="fill:#fff;opacity:0.2"></path><path d="M184.34,177.26a30.36,30.36,0,0,0-16,6.8s2.74-7.32,16.2-10.23Z" style="fill:#E5FF00;opacity:0.8"></path><path d="M224.88,124.12l17.68,5.49c3,1,14.5,8,10.49,25.3-1.33,5.7-3.13,13.72-4.76,21.72-1.25,6.12,3.33,17.9,7,36.65,0,0-15.16,12.06-45.29,8.66-23-2.6-25.47-11.2-25.47-11.2.64-21.4,2.53-29.66,2.49-37.79,0,0-3.36-4.1-3.5-11.37-.15-7.63,1.86-11.73,8.69-20.38,6.51-8.23,10.51-12.52,10.51-12.52Z" style="fill:#fafafa"></path><path d="M186.46,182.73c-.49,5.09-1.16,11.47-1.62,20.84A118.12,118.12,0,0,0,198,202.31s10.88,9.58,33.76,15.25c2.17.53,6.33,1.22,10.81,1.79,8.49-2.68,12.75-6.07,12.75-6.07-2-10.13-4.25-18.21-5.7-24.47Z" style="fill:#e0e0e0"></path><path d="M210.39,126.26c-.82.3-8,2.17-8,2.17-9.28,7.84-15.28,17-17.54,22.22-2.72,6.25-3.08,13.14-3.24,23-.14,8.55-2.44,33.53-2.44,46,.93,3.3,6.52,6.4,6.52,6.4.4,4.34,2.25-42.7,4.57-65.43,3-20,18-30.3,21.29-32.59Z" style="fill:#E5FF00"></path><path d="M210.39,126.26c-.82.3-8,2.17-8,2.17-9.28,7.84-15.28,17-17.54,22.22-2.72,6.25-3.08,13.14-3.24,23-.14,8.55-2.44,33.53-2.44,46,.93,3.3,6.52,6.4,6.52,6.4.4,4.34,2.25-42.7,4.57-65.43,3-20,18-30.3,21.29-32.59Z" style="fill:#fff;opacity:0.5"></path><path d="M204.13,129.51c-1,1-1.95,1.87-2.93,2.8s-2,1.83-3,2.75l.11-.35.77,2.5.07.24-.2.18q-3.72,3.36-7.52,6.63l.16-.3c-.44,2.91-.86,5.81-1.35,8.71l-1.37,8.71c0-1.47.14-2.94.24-4.41s.27-2.93.42-4.39c.29-2.93.68-5.85,1.09-8.76l0-.18.14-.12q3.78-3.3,7.62-6.51l-.12.42-.63-2.53,0-.22.16-.13c1.05-.85,2.08-1.72,3.15-2.55S203.05,130.32,204.13,129.51Z" style="fill:#E5FF00;opacity:0.4"></path><path d="M233.13,124.8l.07,2.59c-4.42,14.54-4.3,33.16-4.4,46.77-.21,28.57,3.95,58.9,3.95,58.9s17.92,3.19,26-7.73c0,0-4.72-17.43-7.43-34-1.61-9.81,4.93-33.82,3.24-48-.71-5.94-2.31-10.87-6.77-12.26C244.11,129.87,233.13,124.8,233.13,124.8Z" style="fill:#E5FF00"></path><path d="M233.13,124.8l.07,2.59c-4.42,14.54-4.3,33.16-4.4,46.77-.21,28.57,3.95,58.9,3.95,58.9s17.92,3.19,26-7.73c0,0-4.72-17.43-7.43-34-1.61-9.81,4.93-33.82,3.24-48-.71-5.94-2.31-10.87-6.77-12.26C244.11,129.87,233.13,124.8,233.13,124.8Z" style="fill:#fff;opacity:0.5"></path><path d="M228.79,171.32A39.12,39.12,0,0,1,230.2,165c.63-2.06,1.33-4.1,2.07-6.13s1.57-4,2.41-6,1.67-4,2.61-5.91v.38l-3.05-8.1-.11-.3.23-.18,3.82-3-.1.35c-.44-1.45-.89-2.89-1.3-4.34s-.85-2.9-1.25-4.36c.56,1.41,1.08,2.83,1.61,4.24s1,2.84,1.54,4.26l.07.2-.17.14-3.68,3.16.13-.48,3.17,8.06.08.19-.09.19c-.88,2-1.8,3.9-2.65,5.87s-1.68,3.95-2.51,5.93-1.62,4-2.34,6A48.55,48.55,0,0,0,228.79,171.32Z" style="fill:#E5FF00;opacity:0.4"></path><g id="freepik--Head--inject-60"><path d="M226.91,62.57c-3.91,1.65-5.61,3-8.93-.66-3.91-3.34-9.92-2.2-13,1.72-1.06,1.28-2.14,3-3.77,2.91-.91,0-2.07-.64-3.71-.85a6.39,6.39,0,0,0-6.21,3.39c-.54,1.37-.14,2.94,0,4.42a3.91,3.91,0,0,1-1.63,3.74,2.33,2.33,0,0,1-3.35-1.39c-1.45,1.17-1.16,3.76.19,5.08a6.64,6.64,0,0,0,5.19,1.45c-3.36.49-6.37,4.22-4.79,7.74.71,1.54,2.26,2.64,2.59,4.32.41,2.08-1.09,4.25-1.08,6.36a5.8,5.8,0,0,0,4.4,5.33,9.8,9.8,0,0,1,4.57,2.5c1.67,1.65,2.4,4.18,4,6,7.87,8.22,13.1-3.18,21,.82a18.29,18.29,0,0,1,2.91,2.21c.4.34.79.66,1.2,1a3.65,3.65,0,0,1,1,.81,3.08,3.08,0,0,0,2.28,1.3,8.59,8.59,0,0,0,2.62-.22c2.76-.51,5.69-1.23,7.61-3.37a22,22,0,0,0,1.66-2.35,8.33,8.33,0,0,1,4.05-3.53c2-.63,4.27,0,6-1.1a6.75,6.75,0,0,0,2.46-4,13.58,13.58,0,0,1,1.78-4.45,5,5,0,0,1,5-1.83,8.18,8.18,0,0,0-3-4.77c-1-.77-2.19-1.27-3.26-1.93a5.7,5.7,0,0,1-1-.75,5,5,0,0,1-.84-1.09,8,8,0,0,1-.94-2.67,9.44,9.44,0,0,1-.14-1.05c-.18-1.93,0-3.88-.21-5.81-.37-3.11-2-6.19-4.69-7.61-1.22-.64-2.58-.92-3.84-1.45a5.77,5.77,0,0,1-2.33-1.64c-.26-.32-.48-.67-.75-1a3.66,3.66,0,0,1-.57-1,14.59,14.59,0,0,0-2.07-4.16C234.83,61.77,230.41,61.27,226.91,62.57Z" style="fill:#263238"></path><path d="M236.14,112.62c2.14,0,4.39-1.59,5.75-3.51,2.13-3,2.71-7.48,1.11-10.13-1.32-2.17-3.93-3.79-6.28-2.37-2.52,1.52-2.55,2.66-3.52,4.4s-2.89,2-3.65-5.11c-.71-6.65-1.62-12.74-4.82-15.78-4.78-4.55-9.09-2-12.6.85-1.93-3.12-6.09-5.27-8.68-3.5-3,2.08-5.08,5.29-6.41,17.85-1.36,12.81,1.53,20.86,4.44,23.06,2.2,1.67,4.69,2.45,9.5,2.74l-.62,7.93s-5.26,14.22-5.41,25.22a168.18,168.18,0,0,1,14.89-15.84C227,132,232,128.07,232,128.07l.63-17.54A4.06,4.06,0,0,0,236.14,112.62Z" style="fill:#b16668"></path><path d="M205,154.27c-2.6-6.56-2.84-9.24-2-12.51s3.82-13.9,7.76-17.84l-.39,5.13A101.38,101.38,0,0,0,205,154.27Z" style="fill:#ebebeb"></path><path d="M205,154.27a34.71,34.71,0,0,0,3.08-6.8c.9-3.13,1.95-4.85,7.85-9s15-13.49,16.28-15.75l.05-1.56s.91.13.94,3c0,2,0,3.18,0,3.18C229.22,134,216.77,144.25,205,154.27Z" style="fill:#ebebeb"></path><path d="M200.38,90.34,205,88.15a2.44,2.44,0,0,0-3.3-1.25A2.67,2.67,0,0,0,200.38,90.34Z" style="fill:#263238"></path><path d="M216.42,90.93l5,2a2.6,2.6,0,0,0-1.42-3.5A2.85,2.85,0,0,0,216.42,90.93Z" style="fill:#263238"></path><path d="M216.31,107.29,210,109a3.27,3.27,0,0,0,4.28,2.22A3.06,3.06,0,0,0,216.31,107.29Z" style="fill:#9a4a4d"></path><path d="M212.51,111.27a3.42,3.42,0,0,1,3.59-2.86l.31.06a2.89,2.89,0,0,1-2.11,2.71A3.66,3.66,0,0,1,212.51,111.27Z" style="fill:#ffa8a7"></path><polygon points="211.92 92.31 209.06 104.67 202.56 101.27 211.92 92.31" style="fill:#9a4a4d"></polygon><path d="M220.12,95.9a1.85,1.85,0,1,1-1.73-2A1.85,1.85,0,0,1,220.12,95.9Z" style="fill:#263238"></path><path d="M204.83,94.89a1.85,1.85,0,1,1-1.72-2A1.85,1.85,0,0,1,204.83,94.89Z" style="fill:#263238"></path><path d="M211,121.12c5.19.61,12-1.62,14.39-3.31,1.41-1,2.65-3.6,4.53-6.73,0,0-.94,7.46-4.45,9.48-5.34,3.07-14.7,3.36-14.7,3.36Z" style="fill:#9a4a4d"></path><circle cx="236.18" cy="109.11" r="1.56" style="fill:#fafafa"></circle></g><path d="M196.91,180.09c-2.39-4.47-5.62-10.18-7.12-13.39s-1.83-3.74-4.32-5.38a71.57,71.57,0,0,0-7.28-4.28c-1.28-.64-1.61.89-.69,2.79.8,1.67,4.75,3.92,4.75,3.92s-3.49-.22-5.08-.2c-1.13,0-2.65.76-4.43,1.53s-1.93,1.36-1.5,1.92,1.24,1.06,3,.85,3.47-.54,3.47-.54l3.94.39.43.53s-2.64.33-4.77.85a10.57,10.57,0,0,0-4.15,2c-1.62,1-2.62,1.56-2.69,2s.14,1.63,2.28,1.44a10.73,10.73,0,0,0,4.14-1.45l4.59-.59,2.16,1.8s-2.6.16-4.11.35a18.85,18.85,0,0,0-4.82,1.61c-.61.37.27,1.72,1.45,2.07s4.3-.8,6-.49a34.59,34.59,0,0,1,4.65,1.47Z" style="fill:#b16668"></path><path d="M196.91,180.09c-.2-.36-.85-1.57-1-2a88,88,0,0,1-9.29-.55,20.14,20.14,0,0,0-5.7.19h0a3,3,0,0,1,.58,0c1.67.3,5.38,1.51,5.38,1.51Z" style="fill:#9a4a4d"></path><path d="M190.27,171.49a19.05,19.05,0,0,1-1.86-2.24c-.56-.79-1-1.63-1.6-2.41a6.16,6.16,0,0,0-1.92-2,8.64,8.64,0,0,0-2.64-1.08,6.74,6.74,0,0,1,2.82.78,6.24,6.24,0,0,1,2.12,2.06c.53.82,1,1.65,1.51,2.47S189.73,170.68,190.27,171.49Z" style="fill:#9a4a4d"></path><path d="M190.8,174.47a14.5,14.5,0,0,1-2.25-1.55c-.71-.57-1.38-1.19-2.06-1.79s-1.32-1.26-2-1.84a3.58,3.58,0,0,0-2.37-1.06,3.31,3.31,0,0,1,2.59.79c.75.56,1.37,1.2,2.07,1.78C188.12,172,189.41,173.3,190.8,174.47Z" style="fill:#9a4a4d"></path><path d="M188.39,176.33c-.82-.37-1.52-.9-2.28-1.28a5.6,5.6,0,0,0-1.15-.51,7.55,7.55,0,0,0-1.27-.28,3.22,3.22,0,0,1,1.35-.06,4.43,4.43,0,0,1,1.28.45A8.67,8.67,0,0,1,188.39,176.33Z" style="fill:#9a4a4d"></path><path d="M235.52,186.91c-2.25-.35-5.76-.87-10.62-1.45-4.19-.5-21.86-4.11-26.07-4.4l-14,10c3.8,2.32,14,6.39,19.35,8.28,7.59,2.7,16.33,5.78,24.13,8.19C228.15,200.7,231.58,191,235.52,186.91Z" style="fill:#b16668"></path><path d="M198.83,181.06l-14,10c3.8,2.32,14,6.39,19.35,8.28l5,1.76c6.85-2.62,15.47-7.41,23.6-10.39l.18-.16a18.44,18.44,0,0,1,2.59-3.62c-2.25-.35-5.76-.87-10.62-1.45C220.71,185,203,181.35,198.83,181.06Z" style="fill:#9a4a4d"></path><path d="M261.49,146.11c-1.8-8.77-5.27-13.68-13.7-15.08-7.77,3.11-9.58,17.26-9.44,32.66l2.45,23.22a25.89,25.89,0,0,1-5.28,0c-3.94,4.09-8.18,14.18-8,21a112.57,112.57,0,0,0,19.7,2.62c8.56.1,16-.17,16.75-8.1a177.65,177.65,0,0,0-.14-31.76C262.67,155.85,262.73,152.17,261.49,146.11Z" style="fill:#E5FF00"></path><path d="M261.49,146.11c-1.8-8.77-5.27-13.68-13.7-15.08-7.77,3.11-9.58,17.26-9.44,32.66l2.45,23.22a25.89,25.89,0,0,1-5.28,0c-3.94,4.09-8.18,14.18-8,21a112.57,112.57,0,0,0,19.7,2.62c8.56.1,16-.17,16.75-8.1a177.65,177.65,0,0,0-.14-31.76C262.67,155.85,262.73,152.17,261.49,146.11Z" style="fill:#fff;opacity:0.2"></path><path d="M232.75,190.69a31.67,31.67,0,0,1,5.82-1c5.56-.69,12.83,1.14,14.48,4.58,0,0-2-6-12.25-7.37a44.87,44.87,0,0,1-5.63.4A21.87,21.87,0,0,0,232.75,190.69Z" style="fill:#E5FF00;opacity:0.8"></path><path d="M223.61,191.07c-5.83,1.57-27.85,8.13-48.19,7.71-1.43-2.45-1.23-6.83-.09-10.9,1.61-5.71,3.47-8.18,6.12-10.12,16,2,27,.41,43.53,1.73,6.77.54,15.58,5.15,15.58,5.15l.24,2.27S229.43,189.5,223.61,191.07Z" style="fill:#b16668"></path></g></g></g><g id="freepik--speech-bubbles--inject-60"><g id="freepik--speech-bubble--inject-60"><g id="freepik--speech-bubble--inject-60"><path d="M363.83,51.5l-32.1,18.56c-.63.36-1.14,1.25-1.14,3v38.22a2.5,2.5,0,0,0,1.15,2l4.56,2.59a2.55,2.55,0,0,0,2.3,0l32.09-18.56a2.52,2.52,0,0,0,1.14-2V56.05a2.5,2.5,0,0,0-1.15-2l-4.56-2.59A2.53,2.53,0,0,0,363.83,51.5Z" style="fill:#E5FF00"></path><path d="M338.6,115.81a2.62,2.62,0,0,1-2.3,0l-4.56-2.6a2.42,2.42,0,0,1-1.15-2V73a4.32,4.32,0,0,1,.4-2.14l6.8,3.92a2.15,2.15,0,0,0-.34,1.12v39.22C337.45,115.84,337.92,116.21,338.6,115.81Z" style="opacity:0.15"></path><path d="M327.45,101.13c-.72-.43-6.21-3.52-6.38-3.62a1.08,1.08,0,0,1-.23-1.64l9.75-11.17,6.86,3.93L327.26,99.52A1.08,1.08,0,0,0,327.45,101.13Z" style="fill:#E5FF00"></path><path d="M370.69,55.39,338.6,74a2.52,2.52,0,0,0-1.15,2V88.64l-10.2,10.88a1,1,0,0,0,.66,1.76l9.54-.7h0v14.57c0,.73.51,1,1.15.66l32.09-18.56a2.52,2.52,0,0,0,1.14-2V56.05C371.83,55.32,371.32,55,370.69,55.39Z" style="fill:#E5FF00"></path><path d="M370.69,55.39,338.6,74a2.52,2.52,0,0,0-1.15,2V88.64l-10.2,10.88a1,1,0,0,0,.66,1.76l9.54-.7h0v14.57c0,.73.51,1,1.15.66l32.09-18.56a2.52,2.52,0,0,0,1.14-2V56.05C371.83,55.32,371.32,55,370.69,55.39Z" style="fill:#fff;opacity:0.35000000000000003"></path></g><path id="freepik--Check--inject-60" d="M364.73,66.34A2.85,2.85,0,0,0,361,67.86L350.22,93.5,347.66,91a2.85,2.85,0,1,0-4,4.09l5.56,5.41a2.83,2.83,0,0,0,2,.81,2.76,2.76,0,0,0,.57-.06,2.83,2.83,0,0,0,2.06-1.69l12.39-29.49A2.85,2.85,0,0,0,364.73,66.34Z" style="fill:#fafafa"></path></g><g id="freepik--speech-bubble--inject-60"><g id="freepik--speech-bubble--inject-60"><path d="M155.25,122.1l0-12.89,10.84-1.14a1,1,0,0,1,.62.13l5.68,3.29a1,1,0,0,1,.24,1.59L160.94,125.4Z" style="fill:#E5FF00"></path><path d="M121.25,151.18V111.3a2,2,0,0,1,.91-1.58L154.68,91a2,2,0,0,1,1.81,0l5.06,3a2,2,0,0,1,.9,1.58v39.88a2,2,0,0,1-.91,1.58L129,155.75a2,2,0,0,1-1.81,0l-5.06-3A2.08,2.08,0,0,1,121.25,151.18Z" style="fill:#E5FF00"></path><path d="M128.87,155.83c-.43.16-.76-.08-.76-.6V115.35a2.07,2.07,0,0,1,.27-.9l-6.88-4a1.8,1.8,0,0,0-.25.87v39.88a2,2,0,0,0,.9,1.58l5.06,3A2,2,0,0,0,128.87,155.83Z" style="opacity:0.15"></path><path d="M171.8,111.37l-9.35,1V95.56c0-.58-.41-.81-.91-.52L129,113.78a2,2,0,0,0-.91,1.57v39.88c0,.58.4.81.9.52L161.54,137a2,2,0,0,0,.91-1.58V123.81l10.2-10.73A1,1,0,0,0,171.8,111.37Z" style="fill:#E5FF00"></path><path d="M171.8,111.37l-9.35,1V95.56c0-.58-.41-.81-.91-.52L129,113.78a2,2,0,0,0-.91,1.57v39.88c0,.58.4.81.9.52L161.54,137a2,2,0,0,0,.91-1.58V123.81l10.2-10.73A1,1,0,0,0,171.8,111.37Z" style="fill:#fff;opacity:0.35000000000000003"></path></g><path id="freepik--check--inject-60" d="M155.09,106a2.85,2.85,0,0,0-3.73,1.52l-10.78,25.64-2.56-2.5a2.85,2.85,0,1,0-4,4.09l5.56,5.41a2.82,2.82,0,0,0,2,.8,2.75,2.75,0,0,0,.57-.05,2.83,2.83,0,0,0,2.06-1.69l12.4-29.49A2.86,2.86,0,0,0,155.09,106Z" style="fill:#fafafa"></path></g></g></svg>